


Aarakshan (2011) .Xvid.DvdScr-Rip .AC3  -=![R!pGuru]!=- TDT



SCREENSHOTS:
If u r unable to see screenshots.
Copy the link and paste in your browsers URL (address). 
 
http://img98.imageshack.us/img98/4664/vlcsnap2011081609h44m57.png 
http://img825.imageshack.us/img825/125/vlcsnap2011081609h45m15.png 
http://img193.imageshack.us/img193/7141/vlcsnap2011081609h47m56.png 
http://img834.imageshack.us/img834/5061/vlcsnap2011081614h56m18.png

General
Complete name : Aarakshan (2011) - Xvid - DvdScr-Rip - AC3 - TDT.avi
IMDB : www.imdb.com/title/tt1848771/
Format : AVI
Format/Info : Audio Video Interleave
File size : 896 MiB
Duration : 2h 38mn
Overall bit rate : 788 Kbps
Writing application : VirtualDubMod 1.5.10.3 | www.virtualdub-fr.org || (build 2550/release)
Writing library : VirtualDubMod build 2550/release
Source : DvdScreener @ Team ICTV .. Thnx A LOT
Ripper : KINGFISHER [~TDT~].
Video
ID : 0
Format : MPEG-4 Visual
Format profile : Advanced Simple@L5
Format settings, BVOP : 1
Format settings, QPel : No
Format settings, GMC : No warppoints
Format settings, Matrix : Default (H.263)
Muxing mode : Packed bitstream
Codec ID : XVID
Codec ID/Hint : XviD
Duration : 2h 38mn
Bit rate : 651 Kbps
Width : 656 pixels
Height : 288 pixels
Display aspect ratio : 2.25:1
Frame rate : 23.976 fps
Color space : YUV
Chroma subsampling : 4:2:0
Bit depth : 8 bits
Scan type : Progressive
Compression mode : Lossy
Bits/(Pixel*Frame) : 0.144
Stream size : 739 MiB (83%)
Writing library : XviD 1.2.1 (UTC 2008-12-04)

Audio
ID : 1
Format : AC-3
Format/Info : Audio Coding 3
Mode extension : CM (complete main)
Codec ID : 2000
Duration : 2h 38mn
Bit rate mode : Constant
Bit rate : 128 Kbps
Channel(s) : 2 channels
Channel positions : Front: L R
Sampling rate : 48.0 KHz
Bit depth : 16 bits
Compression mode : Lossy
Stream size : 145 MiB (16%)
Alignment : Split accross interleaves
Interleave, duration : 42 ms (1.00 video frame)
Interleave, preload duration : 500 ms

Ripper Note :- Give Proper Credits To Team TDT wherever u share dis file ....